<?xml version="1.0" encoding="utf-8"?>
<!-- Generator: Adobe Illustrator 25.3.1, SVG Export Plug-In . SVG Version: 6.00 Build 0)  -->
<svg version="1.1" id="Calque_1" xmlns="http://www.w3.org/2000/svg" xmlns:xlink="http://www.w3.org/1999/xlink" x="0px" y="0px"
	 viewBox="0 0 64 64" style="enable-background:new 0 0 64 64;" xml:space="preserve">
<style type="text/css">
	.st0{fill:url(#SVGID_1_);}
	.st1{fill:#FFFFFF;}
</style>
<linearGradient id="SVGID_1_" gradientUnits="userSpaceOnUse" x1="3.5147" y1="60.4853" x2="60.4853" y2="3.5147" gradientTransform="matrix(1 0 0 -1 0 64)">
	<stop  offset="0" style="stop-color:#FF79DA"/>
	<stop  offset="1" style="stop-color:#9356DC"/>
</linearGradient>
<path class="st0" d="M52,64H12C5.4,64,0,58.6,0,52V12C0,5.4,5.4,0,12,0h40c6.6,0,12,5.4,12,12v40C64,58.6,58.6,64,52,64z"/>
<path class="st1" d="M48,18.7c2.7,2.2,4.1,5.5,4,9c0,1.4-0.2,2.8-0.5,4.2c-0.7,3.3-2.2,6.4-4.4,8.9c-2.2,2.5-4.9,4.6-7.9,5.9
	c-3.2,1.4-6.7,2.1-10.2,2.1c-5.7,0-10.1-1.2-12.8-3.4c-2.7-2.2-4.3-5.6-4.2-9.2c0-1.5,0.2-2.9,0.5-4.3c0.8-3.2,2.3-6.2,4.5-8.7
	c2.2-2.5,5-4.5,8.2-5.8c3.3-1.4,6.8-2.1,10.3-2.1C41.2,15.3,45.3,16.4,48,18.7z M32.5,23.1c-1,1.6-2.2,4.5-3.4,8.8
	c-1.2,4.3-2,7.3-2,9.1c-0.1,0.6,0.1,1.3,0.4,1.8c0.3,0.3,0.7,0.5,1.2,0.5c0.8,0.1,1.7-0.7,2.7-2.2c0.9-1.6,2.1-4.7,3.5-9.2
	c1.2-4,1.9-6.9,1.9-8.7c0-0.6-0.1-1.3-0.4-1.8c-0.3-0.3-0.7-0.5-1.2-0.5C34.4,20.8,33.5,21.6,32.5,23.1z"/>
</svg>
